<svg id="visual" viewBox="0 0 960 540" width="960" height="540" xmlns="http://www.w3.org/2000/svg" xmlns:xlink="http://www.w3.org/1999/xlink" version="1.1"><path d="M892 540L890.3 531.8C888.7 523.7 885.3 507.3 872.5 491C859.7 474.7 837.3 458.3 839 442C840.7 425.7 866.3 409.3 871.2 393C876 376.7 860 360.3 855.2 344C850.3 327.7 856.7 311.3 859.8 294.8C863 278.3 863 261.7 866.2 245.2C869.3 228.7 875.7 212.3 866 196C856.3 179.7 830.7 163.3 819.5 147C808.3 130.7 811.7 114.3 826.2 98C840.7 81.7 866.3 65.3 880.7 49C895 32.7 898 16.3 899.5 8.2L901 0L960 0L960 8.2C960 16.3 960 32.7 960 49C960 65.3 960 81.7 960 98C960 114.3 960 130.7 960 147C960 163.3 960 179.7 960 196C960 212.3 960 228.7 960 245.2C960 261.7 960 278.3 960 294.8C960 311.3 960 327.7 960 344C960 360.3 960 376.7 960 393C960 409.3 960 425.7 960 442C960 458.3 960 474.7 960 491C960 507.3 960 523.7 960 531.8L960 540Z" fill="#d8deee"></path><path d="M777 540L769 531.8C761 523.7 745 507.3 724.2 491C703.3 474.7 677.7 458.3 677.7 442C677.7 425.7 703.3 409.3 704.8 393C706.3 376.7 683.7 360.3 683.7 344C683.7 327.7 706.3 311.3 722.3 294.8C738.3 278.3 747.7 261.7 750.8 245.2C754 228.7 751 212.3 741.5 196C732 179.7 716 163.3 706.3 147C696.7 130.7 693.3 114.3 696.5 98C699.7 81.7 709.3 65.3 730.2 49C751 32.7 783 16.3 799 8.2L815 0L902 0L900.5 8.2C899 16.3 896 32.7 881.7 49C867.3 65.3 841.7 81.7 827.2 98C812.7 114.3 809.3 130.7 820.5 147C831.7 163.3 857.3 179.7 867 196C876.7 212.3 870.3 228.7 867.2 245.2C864 261.7 864 278.3 860.8 294.8C857.7 311.3 851.3 327.7 856.2 344C861 360.3 877 376.7 872.2 393C867.3 409.3 841.7 425.7 840 442C838.3 458.3 860.7 474.7 873.5 491C886.3 507.3 889.7 523.7 891.3 531.8L893 540Z" fill="#ced7ea"></path><path d="M623 540L623 531.8C623 523.7 623 507.3 599 491C575 474.7 527 458.3 530.2 442C533.3 425.7 587.7 409.3 597.3 393C607 376.7 572 360.3 572 344C572 327.7 607 311.3 623 294.8C639 278.3 636 261.7 634.5 245.2C633 228.7 633 212.3 621.7 196C610.3 179.7 587.7 163.3 579.7 147C571.7 130.7 578.3 114.3 575.2 98C572 81.7 559 65.3 557.3 49C555.7 32.7 565.3 16.3 570.2 8.2L575 0L816 0L800 8.2C784 16.3 752 32.7 731.2 49C710.3 65.3 700.7 81.7 697.5 98C694.3 114.3 697.7 130.7 707.3 147C717 163.3 733 179.7 742.5 196C752 212.3 755 228.7 751.8 245.2C748.7 261.7 739.3 278.3 723.3 294.8C707.3 311.3 684.7 327.7 684.7 344C684.7 360.3 707.3 376.7 705.8 393C704.3 409.3 678.7 425.7 678.7 442C678.7 458.3 704.3 474.7 725.2 491C746 507.3 762 523.7 770 531.8L778 540Z" fill="#c3d0e6"></path><path d="M153 540L173.7 531.8C194.3 523.7 235.7 507.3 232.3 491C229 474.7 181 458.3 189 442C197 425.7 261 409.3 304.3 393C347.7 376.7 370.3 360.3 384.8 344C399.3 327.7 405.7 311.3 415.2 294.8C424.7 278.3 437.3 261.7 413.3 245.2C389.3 228.7 328.7 212.3 298.3 196C268 179.7 268 163.3 276 147C284 130.7 300 114.3 317.5 98C335 81.7 354 65.3 338 49C322 32.7 271 16.3 245.5 8.2L220 0L576 0L571.2 8.2C566.3 16.3 556.7 32.7 558.3 49C560 65.3 573 81.7 576.2 98C579.3 114.3 572.7 130.7 580.7 147C588.7 163.3 611.3 179.7 622.7 196C634 212.3 634 228.7 635.5 245.2C637 261.7 640 278.3 624 294.8C608 311.3 573 327.7 573 344C573 360.3 608 376.7 598.3 393C588.7 409.3 534.3 425.7 531.2 442C528 458.3 576 474.7 600 491C624 507.3 624 523.7 624 531.8L624 540Z" fill="#b9c8e2"></path><path d="M0 540L0 531.8C0 523.7 0 507.3 0 491C0 474.7 0 458.3 0 442C0 425.7 0 409.3 0 393C0 376.7 0 360.3 0 344C0 327.7 0 311.3 0 294.8C0 278.3 0 261.7 0 245.2C0 228.7 0 212.3 0 196C0 179.7 0 163.3 0 147C0 130.7 0 114.3 0 98C0 81.7 0 65.3 0 49C0 32.7 0 16.3 0 8.2L0 0L221 0L246.5 8.2C272 16.3 323 32.7 339 49C355 65.3 336 81.7 318.5 98C301 114.3 285 130.7 277 147C269 163.3 269 179.7 299.3 196C329.7 212.3 390.3 228.7 414.3 245.2C438.3 261.7 425.7 278.3 416.2 294.8C406.7 311.3 400.3 327.7 385.8 344C371.3 360.3 348.7 376.7 305.3 393C262 409.3 198 425.7 190 442C182 458.3 230 474.7 233.3 491C236.7 507.3 195.3 523.7 174.7 531.8L154 540Z" fill="#afc0de"></path></svg>